HIERARCHY
ROOT Hips
{
    OFFSET 0.000000 0.000000 0.000000
    CHANNELS 6 Xposition Yposition Zposition Zrotation Xrotation Yrotation
        JOINT Chest
        {
            OFFSET -0.000000 31.780966 -0.000000
            CHANNELS 3 Zrotation Xrotation Yrotation
            JOINT Neck
            {
                OFFSET -0.000000 23.880144 0.000000
                CHANNELS 3 Zrotation Xrotation Yrotation
                JOINT Head
                {
                    OFFSET -0.000000 10.511110 0.000000
                    CHANNELS 3 Zrotation Xrotation Yrotation
                    End Site
                    {
                        OFFSET -0.000000 16.244448 0.000000
                    }
                }
            }
            JOINT LeftCollar
            {
                OFFSET -0.000000 23.880144 0.000000
                CHANNELS 3 Zrotation Xrotation Yrotation
                JOINT LeftShoulder
                {
                    OFFSET 19.111111 -0.000000 0.000000
                    CHANNELS 3 Zrotation Xrotation Yrotation
                    JOINT LeftElbow
                    {
                        OFFSET 21.456259 0.000000 0.000000
                        CHANNELS 3 Zrotation Xrotation Yrotation
                        JOINT LeftWrist
                        {
                            OFFSET 25.693237 0.000000 0.000000
                            CHANNELS 3 Zrotation Xrotation Yrotation
                            End Site
                            {
                                OFFSET 0.000000 -14.333333 0.000000
                            }
                        }
                    }
                }
            }
            JOINT RightCollar
            {
                OFFSET -0.000000 23.880144 0.000000
                CHANNELS 3 Zrotation Xrotation Yrotation
                JOINT RightShoulder
                {
                    OFFSET -19.111111 0.000000 0.000000
                    CHANNELS 3 Zrotation Xrotation Yrotation
                    JOINT RightElbow
                    {
                        OFFSET -21.456259 0.000000 0.000000
                        CHANNELS 3 Zrotation Xrotation Yrotation
                        JOINT RightWrist
                        {
                            OFFSET -25.693237 0.000000 0.000000
                            CHANNELS 3 Zrotation Xrotation Yrotation
                            End Site
                            {
                                OFFSET -0.000000 -14.333333 0.000000
                            }
                        }
                    }
                }
            }
        }
    JOINT LeftHip
    {
        OFFSET 11.466667 0.000000 0.000000
        CHANNELS 3 Zrotation Xrotation Yrotation
        JOINT LeftKnee
        {
            OFFSET -0.000000 -37.225342 0.000000
            CHANNELS 3 Zrotation Xrotation Yrotation
            JOINT LeftAnkle
            {
                OFFSET -0.000000 -35.678333 0.000000
                CHANNELS 3 Zrotation Xrotation Yrotation
                End Site
                {
                    OFFSET -0.000000 -4.777778 16.244448
                }
            }
        }
    }
    JOINT RightHip
    {
        OFFSET -11.466667 0.000000 0.000000
        CHANNELS 3 Zrotation Xrotation Yrotation
        JOINT RightKnee
        {
            OFFSET -0.000000 -37.225342 0.000000
            CHANNELS 3 Zrotation Xrotation Yrotation
            JOINT RightAnkle
            {
                OFFSET -0.000000 -35.678333 0.000000
                CHANNELS 3 Zrotation Xrotation Yrotation
                End Site
                {
                    OFFSET -0.000000 -4.777778 16.244448
                }
            }
        }
    }
}
MOTION
Frames:    10
Frame Time:    0.010000
-47.444256    83.534645    -55.421280    3.787695    0.497914    65.328300    -2.897328    12.317805    5.964178    -0.042567    5.109838    24.294914    -17.014088    3.134590    24.759340    -15.564360    -2.024671    14.712171    3.231148    66.062492    -73.200005    14.650683    -7.845084    -55.990051    115.911049    12.564663    19.070635    19.491119    -0.007737    -0.001192    47.969040    23.787334    -5.626349    13.075353    6.335333    50.851727    -115.608871    -25.283367    24.026514    0.077333    -1.286501    4.602747    0.085186    18.123383    -5.513985    -3.320173    -15.696114    13.275517    -12.226371    -11.068079    6.124254    6.296541    38.213543    -13.384157    10.112297    -9.250160    -16.134708    
-47.536633    83.537590    -55.247284    3.681290    0.605588    65.174843    -3.015122    11.831962    5.779252    -0.355575    4.852608    21.631243    -15.288319    3.135110    22.036533    -15.527463    -2.043908    14.734302    2.709228    66.322281    -72.641869    14.699666    -7.855718    -55.941971    114.079269    12.210475    20.724216    19.568258    0.012022    -0.033291    47.961338    23.951422    -5.481816    13.422037    6.534568    50.817966    -115.955338    -25.543665    24.021648    0.119917    -1.219032    4.801504    0.164779    17.741697    -5.479267    -3.556038    -15.628558    13.227716    -12.104357    -10.658250    6.232871    5.796082    37.253262    -13.640276    10.503389    -9.124130    -16.210697    
-47.635590    83.535065    -55.060242    3.573956    0.734599    65.021736    -3.168885    11.349641    5.568946    -0.605675    4.842672    18.845463    -13.777723    2.911951    19.171858    -15.518730    -2.006178    14.764421    2.148109    66.503059    -71.986389    14.618721    -7.815971    -56.029251    112.429062    11.831656    22.211870    19.663557    -0.016028    -0.054808    47.916260    24.178411    -5.287663    13.729347    6.687867    50.857830    -116.263252    -25.729305    23.931192    0.161177    -1.173539    4.974655    0.216472    17.383078    -5.371243    -3.792511    -15.572607    13.149709    -11.990639    -10.248340    6.315351    5.325397    36.278839    -13.823568    10.834658    -9.028211    -16.233358    
-47.741627    83.528809    -54.864372    3.461015    0.883417    64.866730    -3.354412    10.881091    5.331254    -0.719290    5.016067    15.997590    -12.541744    2.546823    16.244802    -15.507216    -2.038579    14.792458    1.535749    66.714615    -71.277046    14.714316    -7.877443    -56.078262    110.627869    11.286350    23.487724    19.775366    0.003635    -0.067588    47.827137    24.368944    -5.013060    14.114491    6.889676    50.798409    -116.598915    -25.928799    23.809811    0.197572    -1.154215    5.094416    0.244546    17.045115    -5.174572    -4.028512    -15.520624    13.047597    -11.886958    -9.851685    6.368678    4.892923    35.304752    -13.894897    11.076212    -8.992041    -16.216251    
-47.856586    83.520180    -54.663570    3.335045    1.050529    64.705910    -3.565777    10.431417    5.066464    -0.661083    5.270960    13.140818    -11.581792    2.140245    13.324165    -15.526247    -2.014668    14.806131    0.691809    66.844437    -70.252892    14.590235    -7.806242    -56.338654    109.217796    10.816302    24.533861    19.900358    -0.030786    -0.076456    47.709633    24.633780    -4.678268    14.426938    7.027667    50.840229    -116.903122    -26.045574    23.638437    0.228215    -1.169755    5.138042    0.252607    16.728813    -4.878022    -4.263807    -15.467881    12.930243    -11.791505    -9.487581    6.389096    4.501580    34.346588    -13.831497    11.188640    -9.029292    -16.171856    
-47.985489    83.509575    -54.461624    3.181002    1.236318    64.535828    -3.794806    9.993681    4.774354    -0.439162    5.505923    10.323974    -10.852065    1.777055    10.465325    -15.546371    -2.040445    14.804967    -0.295994    66.984833    -69.082443    14.566947    -7.859137    -56.570869    107.858536    10.235157    25.207449    20.034554    0.003293    -0.081579    47.558983    24.832611    -4.255452    14.814424    7.226303    50.771751    -117.259041    -26.196772    23.489269    0.256182    -1.239903    5.077616    0.239886    16.438047    -4.461759    -4.496804    -15.410127    12.805549    -11.698458    -9.188380    6.367421    4.150152    33.424900    -13.633788    11.133450    -9.139399    -16.105675    
-48.135536    83.496643    -54.261673    2.979620    1.442196    64.353889    -4.031218    9.552095    4.454932    -0.100954    5.644397    7.588032    -10.271008    1.513499    7.710168    -15.593558    -2.011982    14.794922    -1.441255    67.045341    -67.696548    14.419254    -7.784718    -56.930435    106.970131    9.749962    25.585653    20.173119    -0.016687    -0.081309    47.397289    25.078989    -3.780656    15.108323    7.349517    50.825130    -117.587914    -26.283535    23.355494    0.287625    -1.390146    4.883326    0.203379    16.177078    -3.898932    -4.726799    -15.342306    12.677555    -11.598577    -8.993555    6.291145    3.835023    32.563705    -13.326157    10.895770    -9.313213    -16.016258    
-48.313026    83.480736    -54.065113    2.716085    1.667952    64.156693    -4.263401    9.091261    4.110188    0.274303    5.649202    4.972015    -9.732229    1.371163    5.091801    -15.632524    -2.057707    14.796962    -2.530145    67.144081    -66.400078    14.428642    -7.871801    -57.162029    106.372353    9.231430    25.625828    20.308624    0.011112    -0.069114    47.233425    25.236193    -3.252265    15.464568    7.530291    50.773930    -117.954628    -26.427044    23.303474    0.330586    -1.639227    4.540559    0.141284    15.948820    -3.172646    -4.957445    -15.260679    12.547270    -11.480603    -8.936029    6.151739    3.550358    31.786125    -12.946298    10.498459    -9.539238    -15.900275    
-48.520554    83.461601    -53.871059    2.387458    1.909515    63.938667    -4.481550    8.605817    3.744645    0.599588    5.520012    2.507949    -9.125760    1.341807    2.636013    -15.695777    -2.045485    14.825994    -3.512765    67.167656    -65.177971    14.305456    -7.813705    -57.457787    106.422127    8.863114    25.503605    20.432636    -0.016992    -0.048720    47.089481    25.406935    -2.695868    15.740341    7.646282    50.803066    -118.258148    -26.540051    23.320961    0.392716    -1.988442    4.059808    0.056373    15.753315    -2.286695    -5.195965    -15.164555    12.414480    -11.333448    -9.029881    5.950181    3.288502    31.108606    -12.532247    9.990835    -9.804309    -15.757918    
-48.755966    83.439461    -53.676476    2.004682    2.159041    63.691689    -4.679004    8.103190    3.364523    0.800752    5.290866    0.236319    -8.364799    1.386882    0.366698    -15.750583    -2.088967    14.905729    -4.202071    67.225624    -64.307594    14.336490    -7.925790    -57.577038    106.766228    8.472457    25.235081    20.537901    0.017211    -0.017490    46.963387    25.470778    -2.086415    16.096445    7.820299    50.688122    -118.555740    -26.731337    23.449722    0.479619    -2.419886    3.481404    -0.042945    15.589203    -1.271983    -5.448680    -15.057146    12.280463    -11.148425    -9.266916    5.698139    3.040642    30.538769    -12.112662    9.427886    -10.094010    -15.594528    
